<svg xmlns="http://www.w3.org/2000/svg" viewBox="0 0 100 100" fill="currentColor">
    <path d="M10 10h25v25h-25z m5 5v15h15v-15z m25 0h5v5h-5z m5 0h5v5h-5z m5 0h5v5h-5z m5-5h25v25h-25z m5 5v15h15v-15z m-35 20h5v5h-5z m15 0h5v5h-5z m-10 5h5v5h-5z m-5 5h5v5h-5z m15 0h5v5h-5z m-5 5h5v5h-5z m-5 5h5v5h-5z m15 0h5v5h-5z m-10 5h5v5h-5z m25-25h5v5h-5z m5 0h5v5h-5z m5 0h5v5h-5z m-10 5h5v5h-5z m-5 5h5v5h-5z m15 0h5v5h-5z m-5 5h5v5h-5z m-5 5h5v5h-5z m15 0h5v5h-5z m-5 5h5v5h-5z m-5 5h5v5h-5z m15 0h5v5h-5z m-40-5h25v25h-25z m5 5v15h15v-15z m30 0h5v5h-5z m5 0h5v5h-5z m-10 5h5v5h-5z m5 0h5v5h-5z m-10 5h5v5h-5z"/>
</svg>